<svg xmlns="http://www.w3.org/2000/svg" fill="none" viewBox="0 0 300 300"><g clip-path="url(#a)"><rect fill="#2FD468" width="300" height="300" rx="33"/><path d="M243.471 207.07c0 8.538-1.595 15.893-4.783 22.065-3.086 6.172-7.252 11.418-12.499 15.738-5.246 4.32-11.315 7.869-18.207 10.647-6.789 2.674-13.886 4.783-21.293 6.326a164.855 164.855 0 0 1-22.373 3.086c-7.406.514-14.349.771-20.83.771-6.377 0-13.012-.257-19.904-.771a195.91 195.91 0 0 1-20.367-2.315 188.48 188.48 0 0 1-20.059-4.474c-6.583-1.955-12.806-4.372-18.67-7.252l-.308-198.735c5.76-2.366 11.88-4.474 18.361-6.326a184.088 184.088 0 0 1 19.75-4.783 199.377 199.377 0 0 1 20.213-2.932c6.686-.72 13.167-1.08 19.441-1.08 7.304 0 14.659.463 22.065 1.389 7.509.926 14.709 2.469 21.601 4.629 6.892 2.16 13.321 4.989 19.287 8.486 5.967 3.395 11.161 7.612 15.584 12.652 4.527 5.04 8.024 10.904 10.493 17.59 2.571 6.686 3.857 14.401 3.857 23.145 0 5.76-.823 11.161-2.469 16.201-1.646 5.04-4.011 9.566-7.097 13.578-3.086 4.012-6.841 7.458-11.264 10.338-4.423 2.777-9.412 4.835-14.967 6.172 6.686 1.749 12.755 4.32 18.207 7.715 5.555 3.394 10.235 7.509 14.041 12.343 3.909 4.835 6.892 10.287 8.949 16.356 2.161 6.069 3.241 12.549 3.241 19.441Zm-78.383-87.949c0-2.983-.617-5.503-1.852-7.56-1.234-2.161-2.777-3.909-4.629-5.247a17.447 17.447 0 0 0-5.863-2.931c-2.057-.617-3.909-.926-5.555-.926-2.057 0-4.063.309-6.017.926a54.164 54.164 0 0 0-5.709 2.16l-.926 34.254c2.366 0 5.298-.206 8.795-.617a36.993 36.993 0 0 0 10.029-2.623c3.292-1.44 6.069-3.498 8.332-6.172 2.263-2.778 3.395-6.532 3.395-11.264Zm-21.91 50.301a39.67 39.67 0 0 0-8.641.926l-.617 35.179c1.543.309 3.034.618 4.475.926 1.543.206 3.034.309 4.474.309 2.16 0 4.526-.206 7.098-.617a23.066 23.066 0 0 0 7.252-2.778c2.263-1.44 4.114-3.343 5.554-5.709 1.543-2.366 2.315-5.503 2.315-9.412 0-3.909-.772-7.098-2.315-9.566-1.44-2.469-3.24-4.372-5.4-5.709a17.695 17.695 0 0 0-7.098-2.778c-2.571-.514-4.937-.771-7.097-.771Z" fill="#fff"/></g><defs><clipPath id="a"><rect fill="#fff" width="300" height="300" rx="33"/></clipPath></defs></svg>